<?xml version="1.0" standalone="no"?>
<!DOCTYPE svg PUBLIC "-//W3C//DTD SVG 20010904//EN"
 "http://www.w3.org/TR/2001/REC-SVG-20010904/DTD/svg10.dtd">
<svg version="1.0" xmlns="http://www.w3.org/2000/svg"
 width="2500.000000pt" height="1866.000000pt" viewBox="0 0 2500.000000 1866.000000"
 preserveAspectRatio="xMidYMid meet">
<metadata>
Created by potrace 1.15, written by Peter Selinger 2001-2017
</metadata>
<g transform="translate(0.000000,1866.000000) scale(0.100000,-0.100000)"
fill="#000000" stroke="none">
<path d="M11924 12470 c-565 -43 -996 -339 -1164 -799 -56 -153 -74 -265 -74
-471 -1 -252 34 -417 126 -607 210 -433 641 -641 1283 -620 237 8 460 44 675
110 l75 23 3 647 2 647 -460 0 -460 0 0 -220 0 -220 185 0 185 0 0 -254 0
-254 -63 -11 c-107 -18 -310 -14 -407 9 -279 67 -468 263 -537 558 -26 112
-23 338 6 447 36 138 93 239 185 331 97 96 198 152 344 191 88 24 114 26 277
26 202 0 317 -18 462 -71 l83 -30 9 36 c6 20 32 123 60 229 l49 192 -56 22
c-187 70 -527 108 -788 89z"/>
<path d="M17993 12460 c-79 -5 -196 -16 -260 -25 -64 -8 -123 -15 -130 -15
-11 0 -13 -229 -13 -1215 l0 -1215 275 0 275 0 0 485 0 485 78 0 c200 -1 307
-37 374 -125 48 -64 78 -144 128 -352 47 -196 100 -379 129 -446 l20 -47 286
0 c157 0 285 3 285 6 0 4 -13 48 -29 99 -16 50 -59 206 -96 346 -73 282 -87
327 -122 413 -50 120 -143 234 -224 272 -45 22 -48 31 -13 40 48 12 169 100
232 169 70 76 123 175 148 275 24 97 15 279 -19 386 -80 245 -308 403 -657
454 -102 15 -493 20 -667 10z m598 -448 c75 -30 132 -81 166 -150 24 -50 28
-69 28 -147 0 -78 -4 -97 -28 -147 -15 -31 -45 -72 -67 -92 -87 -78 -176 -104
-392 -113 l-158 -6 0 336 0 336 28 4 c15 3 104 4 197 3 148 -2 177 -5 226 -24z"/>
<path d="M13270 11220 l0 -1230 785 0 785 0 0 235 0 235 -505 0 -505 0 0 285
0 285 450 0 450 0 0 230 0 230 -450 0 -450 0 0 250 0 250 480 0 480 0 0 230 0
230 -760 0 -760 0 0 -1230z"/>
<path d="M15402 11227 c-205 -672 -373 -1225 -372 -1229 0 -5 130 -8 290 -8
l289 0 15 53 c8 28 45 162 81 297 36 135 68 253 71 263 5 16 30 17 353 17
l347 0 95 -315 94 -315 303 0 c166 0 302 3 302 7 0 3 -167 542 -371 1197 -205
655 -376 1206 -381 1224 l-9 32 -367 0 -367 0 -373 -1223z m777 568 c29 -119
88 -334 130 -478 l77 -262 -254 -3 c-140 -1 -257 0 -259 2 -3 2 33 139 80 303
46 164 102 378 123 475 21 98 41 178 44 178 3 0 30 -97 59 -215z"/>
<path d="M3918 11776 c-216 -185 -535 -653 -633 -928 -15 -43 -38 -87 -53
-101 -19 -17 -158 -72 -457 -180 l-430 -154 -17 -84 c-42 -209 -53 -336 -52
-634 0 -297 10 -417 52 -624 l17 -85 288 -104 c159 -57 291 -102 293 -99 2 2
-1 28 -6 58 -59 305 -64 846 -10 934 42 67 14 65 764 65 493 0 676 3 676 11 0
6 7 59 16 118 50 342 184 661 390 929 35 45 64 86 64 90 0 4 -188 195 -418
425 l-419 419 -65 -56z"/>
<path d="M4607 7792 c-229 -229 -417 -422 -417 -429 0 -18 205 -221 300 -297
214 -170 509 -343 678 -397 44 -14 82 -34 98 -50 19 -20 68 -144 181 -456 84
-235 157 -431 161 -434 9 -9 228 -45 367 -61 141 -15 538 -16 680 0 155 18
358 52 370 63 9 9 214 572 210 577 -1 2 -65 -6 -141 -17 -198 -29 -459 -41
-648 -31 -187 11 -219 22 -253 90 l-23 44 0 673 0 673 -38 0 c-53 0 -208 27
-322 57 -241 62 -526 206 -722 366 -32 26 -59 47 -60 47 -2 0 -191 -188 -421
-418z"/>
</g>
</svg>
